<svg width="140" height="140" viewBox="0 0 140 140" fill="none" xmlns="http://www.w3.org/2000/svg">
<path fill-rule="evenodd" clip-rule="evenodd" d="M22 105.017C22 103.912 22.8954 103.017 24 103.017H116C117.105 103.017 118 103.912 118 105.017V117.017C118 118.121 117.105 119.017 116 119.017H24C22.8954 119.017 22 118.121 22 117.017V105.017ZM32 111.017C32 113.226 30.6569 115.017 29 115.017C27.3431 115.017 26 113.226 26 111.017C26 108.808 27.3431 107.017 29 107.017C30.6569 107.017 32 108.808 32 111.017ZM42.5 115.017C44.433 115.017 46 113.226 46 111.017C46 108.808 44.433 107.017 42.5 107.017C40.567 107.017 39 108.808 39 111.017C39 113.226 40.567 115.017 42.5 115.017ZM64 111.017C64 113.226 62.2091 115.017 60 115.017C57.7909 115.017 56 113.226 56 111.017C56 108.808 57.7909 107.017 60 107.017C62.2091 107.017 64 108.808 64 111.017ZM80 115.017C82.2091 115.017 84 113.226 84 111.017C84 108.808 82.2091 107.017 80 107.017C77.7909 107.017 76 108.808 76 111.017C76 113.226 77.7909 115.017 80 115.017ZM101 111.017C101 113.226 99.433 115.017 97.5 115.017C95.567 115.017 94 113.226 94 111.017C94 108.808 95.567 107.017 97.5 107.017C99.433 107.017 101 108.808 101 111.017ZM111 115.017C112.657 115.017 114 113.226 114 111.017C114 108.808 112.657 107.017 111 107.017C109.343 107.017 108 108.808 108 111.017C108 113.226 109.343 115.017 111 115.017Z" fill="white"/>
<path d="M3 25.6381C43.0335 20.2178 19.6012 51.7882 45.7945 61.2346C50.6261 62.9771 36.6093 82.4038 31.0875 79.5723C3.47813 65.4146 34.7507 32.0835 3 25.6381Z" fill="white"/>
<path d="M137.791 25.6381C97.7574 20.2178 121.19 51.7882 94.9964 61.2346C90.1648 62.9771 104.182 82.4038 109.703 79.5723C137.313 65.4146 106.04 32.0835 137.791 25.6381Z" fill="white"/>
<path fill-rule="evenodd" clip-rule="evenodd" d="M26.3196 97H113.68C112.503 85.9562 108.106 75.6089 101.113 67.6615C92.8611 58.2847 81.6695 53.0168 70 53.0168C58.3305 53.0168 47.1389 58.2847 38.8873 67.6615C31.8936 75.6089 27.4974 85.9562 26.3196 97Z" fill="white"/>
</svg>
