<svg width="160" height="160" viewBox="0 0 160 160" fill="none" xmlns="http://www.w3.org/2000/svg">
<g clip-path="url(#clip0)">
<rect width="160" height="160" rx="32" fill="#0094CB"/>
<path opacity="0.6" d="M34 119.5L113.5 70.5L140 26.5L228.5 115L125.5 211L34 119.5Z" fill="url(#paint0_radial)"/>
<g filter="url(#filter0_i)">
<path d="M36 104.017C36 97.4508 37.1381 90.949 39.3493 84.8827C41.5605 78.8164 44.8015 73.3044 48.8873 68.6615C52.9731 64.0186 57.8236 60.3356 63.1619 57.8229C68.5003 55.3101 74.2218 54.0168 80 54.0168L80 104.017H36Z" fill="white"/>
</g>
<g filter="url(#filter1_i)">
<path d="M124 104C124 97.4339 122.862 90.9321 120.651 84.8658C118.439 78.7995 115.198 73.2876 111.113 68.6447C107.027 64.0017 102.176 60.3188 96.8381 57.806C91.4997 55.2933 85.7782 54 80 54L80 104H124Z" fill="#80D2F1"/>
</g>
<g filter="url(#filter2_i)">
<path d="M115 104.017C115 97.4508 114.095 90.949 112.336 84.8827C110.577 78.8164 107.999 73.3044 104.749 68.6615C101.499 64.0186 97.6403 60.3356 93.3939 57.8229C89.1475 55.3101 84.5963 54.0168 80 54.0168V104.017H115Z" fill="#BFE8F8"/>
</g>
<rect x="32" y="104.017" width="96" height="16" rx="2" fill="white"/>
<rect x="85.1428" y="104.017" width="42.8571" height="16" rx="2" fill="#80D2F1"/>
<rect x="83" y="104" width="38" height="16" rx="2" fill="#BFE8F8"/>
<g filter="url(#filter3_i)">
<ellipse cx="39" cy="112.017" rx="3" ry="4" fill="#4ABBE6"/>
</g>
<g filter="url(#filter4_i)">
<ellipse cx="52.5" cy="112.017" rx="3.5" ry="4" fill="#4ABBE6"/>
</g>
<g filter="url(#filter5_i)">
<circle cx="70" cy="112.017" r="4" fill="#4ABBE6"/>
</g>
<circle cx="90" cy="112.017" r="4" fill="#5DCAF3"/>
<ellipse cx="107.5" cy="112.017" rx="3.5" ry="4" fill="#4ABBE6"/>
<ellipse cx="121" cy="112.017" rx="3" ry="4" fill="#33B3E3"/>
<path d="M13 26.6381C53.0335 21.2178 29.6012 52.7882 55.7945 62.2346C60.6261 63.9771 46.6093 83.4038 41.0875 80.5723C13.4781 66.4146 44.7507 33.0835 13 26.6381Z" fill="white"/>
<path d="M13 26.6503C53.0355 21.1222 29.8054 52.3824 56 62.0168C58.3904 62.896 54.416 71.9996 49.5841 69.4727C21.9735 55.0333 50.9647 24.9166 13 26.6503Z" fill="#D0F2FF"/>
<path d="M147.791 26.6381C107.757 21.2178 131.19 52.7882 104.996 62.2346C100.165 63.9771 114.182 83.4038 119.703 80.5723C147.313 66.4146 116.04 33.0835 147.791 26.6381Z" fill="#80D2F1"/>
<path d="M147.791 26.6503C107.755 21.1222 130.985 52.3824 104.791 62.0168C102.401 62.896 106.375 71.9996 111.207 69.4727C138.817 55.0333 109.826 24.9166 147.791 26.6503Z" fill="#D0F2FF"/>
</g>
<defs>
<filter id="filter0_i" x="36" y="54.0168" width="44" height="50" filterUnits="userSpaceOnUse" color-interpolation-filters="sRGB">
<feFlood flood-opacity="0" result="BackgroundImageFix"/>
<feBlend mode="normal" in="SourceGraphic" in2="BackgroundImageFix" result="shape"/>
<feColorMatrix in="SourceAlpha" type="matrix" values="0 0 0 0 0 0 0 0 0 0 0 0 0 0 0 0 0 0 127 0" result="hardAlpha"/>
<feOffset dy="-6"/>
<feComposite in2="hardAlpha" operator="arithmetic" k2="-1" k3="1"/>
<feColorMatrix type="matrix" values="0 0 0 0 0.501961 0 0 0 0 0.823529 0 0 0 0 0.945098 0 0 0 1 0"/>
<feBlend mode="normal" in2="shape" result="effect1_innerShadow"/>
</filter>
<filter id="filter1_i" x="80" y="54" width="44" height="50" filterUnits="userSpaceOnUse" color-interpolation-filters="sRGB">
<feFlood flood-opacity="0" result="BackgroundImageFix"/>
<feBlend mode="normal" in="SourceGraphic" in2="BackgroundImageFix" result="shape"/>
<feColorMatrix in="SourceAlpha" type="matrix" values="0 0 0 0 0 0 0 0 0 0 0 0 0 0 0 0 0 0 127 0" result="hardAlpha"/>
<feOffset dy="-6"/>
<feComposite in2="hardAlpha" operator="arithmetic" k2="-1" k3="1"/>
<feColorMatrix type="matrix" values="0 0 0 0 0.00392157 0 0 0 0 0.509804 0 0 0 0 0.729412 0 0 0 1 0"/>
<feBlend mode="normal" in2="shape" result="effect1_innerShadow"/>
</filter>
<filter id="filter2_i" x="80" y="54.0168" width="35" height="50" filterUnits="userSpaceOnUse" color-interpolation-filters="sRGB">
<feFlood flood-opacity="0" result="BackgroundImageFix"/>
<feBlend mode="normal" in="SourceGraphic" in2="BackgroundImageFix" result="shape"/>
<feColorMatrix in="SourceAlpha" type="matrix" values="0 0 0 0 0 0 0 0 0 0 0 0 0 0 0 0 0 0 127 0" result="hardAlpha"/>
<feOffset dy="-6"/>
<feComposite in2="hardAlpha" operator="arithmetic" k2="-1" k3="1"/>
<feColorMatrix type="matrix" values="0 0 0 0 0.290196 0 0 0 0 0.733333 0 0 0 0 0.901961 0 0 0 1 0"/>
<feBlend mode="normal" in2="shape" result="effect1_innerShadow"/>
</filter>
<filter id="filter3_i" x="36" y="108.017" width="6" height="8" filterUnits="userSpaceOnUse" color-interpolation-filters="sRGB">
<feFlood flood-opacity="0" result="BackgroundImageFix"/>
<feBlend mode="normal" in="SourceGraphic" in2="BackgroundImageFix" result="shape"/>
<feColorMatrix in="SourceAlpha" type="matrix" values="0 0 0 0 0 0 0 0 0 0 0 0 0 0 0 0 0 0 127 0" result="hardAlpha"/>
<feOffset dx="2"/>
<feComposite in2="hardAlpha" operator="arithmetic" k2="-1" k3="1"/>
<feColorMatrix type="matrix" values="0 0 0 0 0.74902 0 0 0 0 0.909804 0 0 0 0 0.972549 0 0 0 1 0"/>
<feBlend mode="normal" in2="shape" result="effect1_innerShadow"/>
</filter>
<filter id="filter4_i" x="49" y="108.017" width="7" height="8" filterUnits="userSpaceOnUse" color-interpolation-filters="sRGB">
<feFlood flood-opacity="0" result="BackgroundImageFix"/>
<feBlend mode="normal" in="SourceGraphic" in2="BackgroundImageFix" result="shape"/>
<feColorMatrix in="SourceAlpha" type="matrix" values="0 0 0 0 0 0 0 0 0 0 0 0 0 0 0 0 0 0 127 0" result="hardAlpha"/>
<feOffset dx="3"/>
<feComposite in2="hardAlpha" operator="arithmetic" k2="-1" k3="1"/>
<feColorMatrix type="matrix" values="0 0 0 0 0.74902 0 0 0 0 0.909804 0 0 0 0 0.972549 0 0 0 1 0"/>
<feBlend mode="normal" in2="shape" result="effect1_innerShadow"/>
</filter>
<filter id="filter5_i" x="66" y="108.017" width="8" height="8" filterUnits="userSpaceOnUse" color-interpolation-filters="sRGB">
<feFlood flood-opacity="0" result="BackgroundImageFix"/>
<feBlend mode="normal" in="SourceGraphic" in2="BackgroundImageFix" result="shape"/>
<feColorMatrix in="SourceAlpha" type="matrix" values="0 0 0 0 0 0 0 0 0 0 0 0 0 0 0 0 0 0 127 0" result="hardAlpha"/>
<feOffset dx="3"/>
<feComposite in2="hardAlpha" operator="arithmetic" k2="-1" k3="1"/>
<feColorMatrix type="matrix" values="0 0 0 0 0.74902 0 0 0 0 0.909804 0 0 0 0 0.972549 0 0 0 1 0"/>
<feBlend mode="normal" in2="shape" result="effect1_innerShadow"/>
</filter>
<radialGradient id="paint0_radial" cx="0" cy="0" r="1" gradientUnits="userSpaceOnUse" gradientTransform="translate(74.5 88.5) rotate(47.6368) scale(107.594 92.4918)">
<stop stop-color="#002255"/>
<stop offset="1" stop-color="#00255B" stop-opacity="0"/>
</radialGradient>
<clipPath id="clip0">
<rect width="160" height="160" rx="32" fill="white"/>
</clipPath>
</defs>
</svg>
