<?xml version="1.0" standalone="no"?>
<!DOCTYPE svg PUBLIC "-//W3C//DTD SVG 20010904//EN"
 "http://www.w3.org/TR/2001/REC-SVG-20010904/DTD/svg10.dtd">
<svg version="1.0" xmlns="http://www.w3.org/2000/svg"
 width="280.000000pt" height="280.000000pt" viewBox="0 0 280.000000 280.000000"
 preserveAspectRatio="xMidYMid meet">
<metadata>
Created by potrace 1.11, written by Peter Selinger 2001-2013
</metadata>
<g transform="translate(0.000000,280.000000) scale(0.100000,-0.100000)"
fill="#000000" stroke="none">
<path d="M85 2472 c-13 -3 2 -11 45 -24 136 -42 201 -113 237 -258 2 -8 4
-114 4 -236 0 -229 5 -273 47 -366 25 -58 101 -141 160 -175 32 -19 41 -30 37
-42 -48 -116 -85 -253 -85 -311 0 -20 1 -20 871 -20 l871 0 -7 56 c-7 58 -51
222 -64 239 -25 32 -19 44 44 84 76 49 136 122 166 199 30 81 30 83 33 342 2
238 4 253 37 326 34 77 129 147 227 169 54 12 29 18 -85 21 -193 6 -292 -35
-356 -146 -14 -25 -42 -106 -62 -180 -20 -74 -51 -161 -68 -193 -47 -90 -127
-161 -215 -191 -34 -12 -39 -11 -91 24 -181 118 -412 157 -617 105 -88 -22
-206 -74 -264 -115 -36 -25 -41 -25 -98 4 -113 58 -196 172 -227 312 -49 224
-110 320 -229 361 -49 16 -259 27 -311 15z"/>
<path d="M452 908 c-17 -17 -17 -279 0 -296 17 -17 1879 -17 1896 0 8 8 12 56
12 150 0 126 -2 138 -19 148 -30 16 -1873 14 -1889 -2z m162 -84 c24 -23 29
-59 16 -98 -25 -77 -110 -48 -110 38 0 30 36 76 60 76 10 0 26 -7 34 -16z
m281 -9 c16 -15 25 -36 25 -55 0 -36 -38 -80 -70 -80 -32 0 -70 44 -70 80 0
36 38 80 70 80 12 0 32 -11 45 -25z m344 15 c24 -13 45 -64 37 -94 -14 -56
-107 -72 -141 -23 -47 67 32 156 104 117z m415 -15 c29 -27 33 -53 11 -94 -24
-48 -77 -55 -119 -16 -29 27 -33 53 -11 95 24 47 77 54 119 15z m341 0 c31
-30 32 -73 4 -109 -26 -33 -62 -34 -94 -1 -32 31 -32 74 0 109 30 33 59 33 90
1z m251 17 c38 -25 44 -90 11 -128 -31 -36 -70 -28 -86 17 -16 45 -14 63 10
93 20 26 44 33 65 18z"/>
</g>
</svg>
